<svg width="120" height="24" viewBox="0 0 120 24" fill="none" xmlns="http://www.w3.org/2000/svg">
<path d="M19.6222 10.257C19.2931 10.15 18.9905 10.0614 18.7017 9.98887C18.9778 9.67589 19.2666 9.30653 19.5486 8.91875C20.3126 7.86705 20.6992 7.05468 20.6992 6.33092C20.6992 5.11007 19.8615 4.27929 18.2598 3.00897C17.0436 2.04471 16.0908 1.51311 15.1922 1.51311C14.1865 1.51311 13.2844 2.16553 12.2384 3.60501C12.0359 3.88462 11.8576 4.14582 11.7011 4.39206C11.4893 4.03305 11.227 3.64413 10.9451 3.25636C9.91639 1.84105 9.07986 1.24615 8.11675 1.24615C7.23765 1.24615 6.25499 1.77546 4.92482 2.65801C3.24486 3.773 2.444 4.6452 2.444 5.89482C2.444 6.65541 2.86284 7.50574 3.63378 8.56895C3.8363 8.84856 4.02961 9.09826 4.20912 9.32379C3.80293 9.41354 3.35187 9.54356 2.89621 9.69085C0.736423 10.3927 0 11.2592 0 12.6941C0 13.3741 0.189859 14.2106 0.475223 15.2359C1.13685 17.6097 1.94231 18.6994 3.61883 18.6994C4.1838 18.6994 4.88455 18.5567 5.69807 18.2909C6.02601 18.1839 6.32403 18.078 6.59558 17.971C6.55531 18.3852 6.5392 18.8547 6.5392 19.3345C6.5392 22.7428 7.83829 23.3561 11.6585 23.3561C14.2981 23.3561 15.5765 22.6783 15.5765 19.3345C15.5765 18.9893 15.5684 18.6729 15.55 18.3818C15.932 18.5475 16.3727 18.7074 16.8284 18.8559C17.5366 19.1036 18.2795 19.2376 19.0296 19.2528C20.392 19.2528 21.2159 18.0527 22.0501 15.8008C22.4413 14.7526 22.6415 13.8942 22.6415 13.1877C22.6415 11.7505 21.7302 10.9428 19.6222 10.257ZM14.5593 5.48634L14.9333 4.97314C14.9785 4.90294 15.0384 4.84342 15.1089 4.7987C15.1794 4.75399 15.2588 4.72516 15.3416 4.71421C15.4243 4.70326 15.5085 4.71046 15.5882 4.7353C15.6679 4.76014 15.7413 4.80204 15.8032 4.85808C17.2714 6.14106 18.1793 8.04771 18.1632 9.86115C17.2944 9.6966 16.6593 9.74608 16.1518 10.0706C16.1668 9.97851 16.176 9.87956 16.184 9.77485C16.237 8.70243 15.6985 7.55867 14.6398 6.34013C14.4074 6.08008 14.3395 5.77975 14.557 5.48634H14.5593ZM13.1889 9.26971C14.4477 10.1833 15.1668 10.5561 15.5834 10.601C15.1887 11.1096 14.8654 11.8667 14.5248 12.9115C14.045 14.3913 13.9126 15.1898 13.9989 15.6006C13.3937 15.3832 12.5744 15.3084 11.4744 15.3084C9.91984 15.3084 9.11783 15.4292 8.75422 15.6375C8.77493 14.9954 8.59198 14.1934 8.25253 13.1474C7.77156 11.6688 7.4091 10.9439 7.10187 10.662C7.71863 10.4825 8.42513 10.0614 9.31574 9.41469C10.5734 8.50106 11.1499 7.93149 11.3213 7.54947C11.6838 8.08107 12.3029 8.62303 13.1889 9.26971ZM5.9259 5.57379C7.60011 4.57271 9.69431 4.29885 11.4134 4.87418C10.9888 5.65088 10.8381 6.27109 10.9911 6.85332C10.9094 6.81075 10.8174 6.77047 10.7195 6.7302C9.71732 6.34818 8.46195 6.50697 6.97645 7.13753C6.65311 7.27446 6.34819 7.24224 6.13532 6.94883L5.76251 6.43448C5.71045 6.36929 5.6732 6.29356 5.65333 6.21254C5.63346 6.13152 5.63144 6.04715 5.64742 5.96527C5.6634 5.8834 5.697 5.80598 5.74588 5.73838C5.79476 5.67078 5.85776 5.61462 5.9305 5.57379H5.9259ZM6.13417 10.9819C5.46103 11.8173 5.224 13.06 5.36438 14.664C5.39544 15.0092 5.27002 15.2946 4.92598 15.4062L4.32878 15.6029C4.25083 15.6327 4.16734 15.6451 4.08411 15.6393C4.00088 15.6336 3.91989 15.6098 3.84677 15.5696C3.77365 15.5294 3.71014 15.4738 3.66065 15.4067C3.61115 15.3395 3.57686 15.2624 3.56014 15.1806C3.12634 13.2798 3.51297 11.2028 4.59574 9.74493C5.20213 10.3893 5.74639 10.7195 6.34704 10.7575C6.2734 10.8231 6.20666 10.8979 6.13877 10.9784L6.13417 10.9819ZM12.594 19.8097C12.5982 19.893 12.5842 19.9762 12.553 20.0536C12.5219 20.1309 12.4743 20.2006 12.4135 20.2577C12.3528 20.3149 12.2804 20.3581 12.2012 20.3845C12.1221 20.4108 12.0382 20.4197 11.9554 20.4104C10.013 20.2355 8.15818 19.2264 7.10533 17.7501C7.91079 17.3715 8.38716 16.9561 8.60924 16.3969C8.65066 16.4809 8.70244 16.5672 8.75767 16.6558C9.34451 17.5545 10.4526 18.1632 12.0244 18.5268C12.3696 18.6062 12.5997 18.811 12.5997 19.1734L12.594 19.8097ZM19.5221 14.0334C18.7558 15.8262 17.2208 17.2794 15.4948 17.8237C15.3797 16.9469 15.1358 16.3589 14.6732 15.9758C14.7653 15.9608 14.8631 15.9401 14.9655 15.9148C16.0011 15.634 16.9216 14.7641 17.7547 13.3833C17.9353 13.0818 18.2 12.9288 18.5452 13.0381L19.1504 13.2349C19.2314 13.2563 19.3068 13.2951 19.3712 13.3487C19.4356 13.4023 19.4875 13.4693 19.5234 13.545C19.5592 13.6207 19.5781 13.7033 19.5786 13.7871C19.5792 13.8709 19.5615 13.9538 19.5267 14.03L19.5221 14.0334Z" fill="#FF1B44"/>
<path d="M36.4978 10.692V10.6057C37.9936 9.78182 38.7082 8.67718 38.7082 7.20319C38.7082 4.79831 36.9316 3.28174 33.8754 3.28174H28.5456C28.2636 3.28174 28.1118 3.43363 28.1118 3.71554V18.0159C28.1118 18.2979 28.2636 18.4497 28.5456 18.4497H34.1147C37.4517 18.4497 39.1846 16.9769 39.1846 14.3764C39.1846 12.6861 38.2099 11.3858 36.4978 10.692ZM30.6685 5.25397H33.6809C35.6095 5.25397 36.064 5.70848 36.064 7.52882C36.064 9.36988 35.6095 9.80368 33.6809 9.80368H30.6685V5.25397ZM34.0492 16.4775H30.6685V11.7736H34.0492C36.064 11.7736 36.5472 12.2339 36.5472 14.1164C36.5472 15.9988 36.064 16.4775 34.0492 16.4775ZM98.3572 7.27223C95.1285 7.27223 93.0262 9.52522 93.0262 12.9277C93.0262 16.3521 95.1285 18.5844 98.3572 18.5844C100.763 18.5844 102.604 17.3497 103.32 15.4638C103.428 15.2037 103.256 15.03 102.952 15.03H101.413C101.301 15.0246 101.189 15.0582 101.098 15.1253C101.007 15.1924 100.942 15.2887 100.914 15.3982C100.569 16.4602 99.9394 16.764 98.3135 16.764C96.2987 16.764 95.6912 16.1358 95.6049 13.5997H103.126C103.406 13.5997 103.558 13.4478 103.558 13.1659V12.9243C103.558 9.41246 101.565 7.26762 98.3572 7.26762V7.27223ZM95.6267 12.1476C95.713 9.69897 96.2987 9.09257 98.3135 9.09257C100.328 9.09257 100.936 9.74269 101.023 12.1476H95.6267ZM87.6089 7.27223C86.2005 7.27223 85.0947 7.72674 84.1201 8.83252H84.0545C83.2744 7.7486 82.3424 7.27223 81.0628 7.27223C79.6981 7.27223 78.6361 7.79233 77.8559 8.83252H77.7685L77.3577 7.7463C77.3219 7.64341 77.2544 7.55455 77.1648 7.49251C77.0753 7.43047 76.9684 7.39847 76.8595 7.4011H75.8239C75.542 7.4011 75.3912 7.55184 75.3912 7.83375V18.0194C75.3912 18.3013 75.542 18.4532 75.8239 18.4532H77.4716C77.7524 18.4532 77.9043 18.3013 77.9043 18.0194V11.15C77.9043 9.43777 78.2943 9.09142 80.1365 9.09142C81.805 9.09142 82.2169 9.4815 82.2169 11.15V18.0194C82.2169 18.3013 82.3688 18.4532 82.6507 18.4532H84.2766C84.5574 18.4532 84.7093 18.3013 84.7093 18.0194V11.15C84.7093 9.43777 85.0993 9.09142 86.9415 9.09142C88.61 9.09142 89.0219 9.4815 89.0219 11.15V18.0194C89.0219 18.3013 89.1738 18.4532 89.4557 18.4532H91.0805C91.3624 18.4532 91.5143 18.3013 91.5143 18.0194V12.273C91.5097 9.02238 90.2531 7.26762 87.6089 7.26762V7.27223ZM114.074 17.9342L110.535 12.6849V12.5986L113.765 7.91775C113.959 7.61397 113.829 7.39765 113.483 7.39765H111.858C111.753 7.38923 111.649 7.41126 111.556 7.46109C111.464 7.51091 111.388 7.58639 111.338 7.67841L109.193 11.2109H109.106L106.983 7.70027C106.934 7.60568 106.859 7.527 106.766 7.47341C106.674 7.41983 106.569 7.39355 106.462 7.39765H104.641C104.296 7.39765 104.165 7.63584 104.36 7.91775L107.589 12.7505V12.8368L104.1 17.9296C103.905 18.2334 104.013 18.4497 104.36 18.4497H106.007C106.112 18.4603 106.218 18.4391 106.31 18.3889C106.403 18.3386 106.479 18.2616 106.527 18.1678L108.954 14.2452H109.019L111.468 18.1678C111.516 18.2616 111.592 18.3386 111.685 18.3889C111.777 18.4391 111.883 18.4603 111.988 18.4497H113.786C114.134 18.4474 114.264 18.2173 114.068 17.9296L114.074 17.9342ZM68.6691 7.26762C66.4149 7.26762 64.5946 8.61045 64.0745 10.4964C63.987 10.8002 64.1608 10.9727 64.4646 10.9727H65.9604C66.2205 10.9727 66.3723 10.8427 66.4379 10.5608C66.6543 9.43432 67.2181 9.08797 68.6702 9.08797C70.2731 9.08797 70.7287 9.36988 70.7287 11.1902V11.2984C70.7287 11.7748 70.555 11.9485 70.0786 11.9485H68.1271C65.4173 11.9485 63.6188 13.1406 63.6188 15.2636C63.6188 17.2795 65.2666 18.5798 67.2814 18.5798C68.7772 18.5798 69.99 17.9296 70.7495 16.7387H70.8369L71.2707 18.0827C71.2927 18.191 71.3529 18.2879 71.4403 18.3555C71.5278 18.4231 71.6367 18.457 71.7471 18.4509H72.7827C73.0646 18.4509 73.2165 18.299 73.2165 18.0171V11.7115C73.2199 9.04424 71.4214 7.26762 68.6691 7.26762ZM70.7276 14.0289C70.7276 15.9574 69.86 16.825 67.9096 16.825C66.4138 16.825 66.0686 16.4338 66.0686 15.1773C66.0686 13.8552 66.3505 13.5307 68.0408 13.5307H70.7287L70.7276 14.0289ZM58.1371 7.26762C56.7494 7.26762 55.6447 7.78772 54.8427 8.82792H54.7553L54.3445 7.7463C54.3085 7.64332 54.2407 7.55442 54.151 7.49239C54.0613 7.43036 53.9542 7.3984 53.8451 7.4011H52.8095C52.5288 7.4011 52.3769 7.55184 52.3769 7.83375V18.0194C52.3769 18.3013 52.5288 18.4532 52.8095 18.4532H54.4573C54.7392 18.4532 54.8911 18.3013 54.8911 18.0194V11.15C54.8911 9.43777 55.2811 9.09142 57.2096 9.09142C58.9437 9.09142 59.3763 9.4815 59.3763 11.15V18.0194C59.3763 18.3013 59.5282 18.4532 59.8101 18.4532H61.4349C61.7168 18.4532 61.8687 18.3013 61.8687 18.0194V12.273C61.8618 9.06611 60.5201 7.26762 58.1371 7.26762ZM45.6547 7.26762C43.4006 7.26762 41.5802 8.61045 41.0601 10.4964C40.9738 10.8002 41.1464 10.9727 41.4502 10.9727H42.9461C43.2061 10.9727 43.3568 10.8427 43.4224 10.5608C43.6388 9.43432 44.2026 9.08797 45.6547 9.08797C47.2587 9.08797 47.7132 9.36988 47.7132 11.1902V11.2984C47.7132 11.7748 47.5395 11.9485 47.0631 11.9485H45.1128C42.4041 11.9485 40.6045 13.1406 40.6045 15.2636C40.6045 17.2795 42.2522 18.5798 44.2682 18.5798C45.764 18.5798 46.9768 17.9296 47.7351 16.7387H47.8237L48.2575 18.0827C48.2795 18.191 48.3397 18.2879 48.4271 18.3555C48.5146 18.4231 48.6235 18.457 48.7339 18.4509H49.7695C50.0514 18.4509 50.2033 18.299 50.2033 18.0171V11.7115C50.2056 9.04424 48.4071 7.26762 45.6547 7.26762ZM47.7086 14.0289C47.7086 15.9574 46.8422 16.825 44.8918 16.825C43.396 16.825 43.0508 16.4338 43.0508 15.1773C43.0508 13.8552 43.3327 13.5307 45.023 13.5307H47.7086V14.0289Z" fill="#003746"/>
</svg>
