<?xml version="1.0" encoding="UTF-8"?>
<svg width="555px" height="64px" viewBox="0 0 555 64" version="1.1" xmlns="http://www.w3.org/2000/svg" xmlns:xlink="http://www.w3.org/1999/xlink">
    <!-- Generator: Sketch 45.1 (43504) - http://www.bohemiancoding.com/sketch -->
    <title>Logo/HorizontalLockupColor</title>
    <desc>Created with Sketch.</desc>
    <defs>
        <polygon id="path-1" points="37.187 36.9988 37.187 0.8978 0.3574 0.8978 0.3574 36.9988 37.187 36.9988"></polygon>
    </defs>
    <g id="simbnolos" stroke="none" stroke-width="1" fill="none" fill-rule="evenodd">
        <g id="Logo/HorizontalLockupColor">
            <g id="Page-1">
                <path d="M71.4522,40.2203 C71.4522,49.9353 63.5782,57.8063 53.8602,57.8063 C44.1532,57.8063 36.2752,49.9353 36.2752,40.2203 C36.2752,30.5053 44.1532,22.6313 53.8602,22.6313 C63.5782,22.6313 71.4522,30.5053 71.4522,40.2203" id="Fill-1" fill="#B4292D"></path>
                <g id="Group-5" transform="translate(0.000000, 0.363700)" fill="#006242">
                    <path d="M76.6629,0.6363 C62.9709,3.0173 52.4139,7.3563 52.4139,7.3563 C31.0489,16.3833 16.0029,32.0773 17.2839,45.3473 C18.1249,54.0133 22.7609,59.7383 34.0749,61.7863 C13.7289,63.9043 1.2539,57.6993 0.0719,45.4513 C-1.3491,30.7073 18.4419,12.7143 44.7089,4.4853 C44.7089,4.4853 49.6959,2.9493 56.2489,1.9183 C61.9769,1.0333 68.7259,0.6363 76.6629,0.6363" id="Fill-3"></path>
                </g>
                <path d="M31.0645,1 C44.7635,3.381 55.3165,7.72 55.3165,7.72 C76.6745,16.747 91.7135,32.441 90.4435,45.711 C89.6085,54.377 84.9625,60.102 73.6535,62.15 C93.9945,64.268 106.4815,58.063 107.6555,45.815 C109.0805,31.071 89.2835,13.078 63.0085,4.849 C63.0085,4.849 58.0285,3.313 51.4725,2.282 C45.7435,1.397 39.0015,1 31.0645,1" id="Fill-6" fill="#006242"></path>
                <path d="M141.2115,34.6141 L145.8495,34.6141 C151.0155,34.6141 154.0625,32.5611 154.0625,29.3811 C154.0625,25.6721 151.0155,25.0761 146.3775,25.0761 L143.1985,25.0761 L141.2115,34.6141 Z M137.1715,53.8231 L140.4825,53.8231 C146.7095,53.8231 150.8815,52.1011 150.8815,47.5971 C150.8815,43.5561 147.9685,42.9611 142.4035,42.9611 L139.4245,42.9611 L137.1715,53.8231 Z M132.7985,16.3321 L153.3335,16.3321 C158.1035,16.3321 166.3835,18.1861 166.3835,26.9311 C166.3835,33.1571 161.5475,37.7941 154.2605,38.6551 L154.2605,38.7881 C159.5595,39.5821 163.2035,42.6301 163.2035,47.7301 C163.2035,57.5331 154.7905,62.1701 144.1925,62.3031 L123.1285,62.5681 L132.7985,16.3321 Z" id="Fill-8" fill="#777779"></path>
                <path d="M181.0181,55.4135 C186.1181,55.4135 189.1661,51.9045 190.0271,47.2665 C189.0341,47.0665 187.5751,47.0665 186.8481,47.0665 C181.1501,46.8695 176.9781,48.9215 176.9781,51.9695 C176.9781,53.5585 178.5011,55.4135 181.0181,55.4135 L181.0181,55.4135 Z M188.9661,57.7325 L188.8351,57.6005 L188.8351,57.7325 C186.3181,61.7065 181.8791,63.3625 177.2431,63.3625 C169.8231,63.3625 165.7161,60.0515 165.7161,53.3605 C165.7161,44.8825 174.1961,40.7085 184.7271,40.7085 C187.1131,40.7085 189.4971,40.9075 191.1531,41.0405 C191.2861,40.5755 191.2861,40.1115 191.2861,39.6485 C191.2861,37.1975 188.8351,35.2105 184.9271,35.2105 C180.6221,35.2105 177.7061,35.8725 173.7311,37.9275 L174.9241,29.2485 C178.4351,28.0575 182.2101,27.2615 187.5751,27.2615 C195.7901,27.2615 202.5461,30.5075 202.5461,38.9855 C202.5461,44.4185 199.5001,52.1675 198.1751,62.5685 L188.4371,62.5685 L188.9661,57.7325 Z" id="Fill-10" fill="#777779"></path>
                <path d="M209.3005,37.0657 C209.8965,34.0837 210.4255,31.1697 210.7575,28.0567 L221.8195,28.0567 L220.8925,33.6877 L221.0245,33.6877 C224.4685,29.8447 228.0465,27.2617 234.3385,27.2617 C241.2945,27.2617 245.0685,32.4277 245.0685,39.1857 C245.0685,41.5037 244.8715,42.8277 244.1425,46.4707 L240.9635,62.5677 L228.6415,62.5677 L231.9545,46.4057 C232.2855,44.6827 232.7485,42.9607 232.7485,41.1727 C232.7485,39.1187 231.4245,37.0657 228.1115,37.1967 C223.0775,37.1967 220.0965,41.5687 219.2355,46.6697 L215.8575,62.5677 L203.9355,62.5677 L209.3005,37.0657 Z" id="Fill-12" fill="#777779"></path>
                <path d="M274.6094,62.0377 C272.2234,62.8327 269.0444,63.3637 264.4084,63.3637 C254.3394,63.3637 248.1134,56.2737 248.1134,47.5977 C248.1134,36.2707 257.1224,27.2617 270.3704,27.2617 C273.2834,27.2617 277.7224,28.1227 281.2334,29.5797 L278.6494,37.8597 C276.1984,36.7337 273.6144,36.0047 270.9664,36.0047 C264.8054,36.0047 260.4324,39.9797 260.4324,47.1337 C260.4324,51.2417 263.6134,54.6197 268.6484,54.6197 C271.6274,54.6197 273.7484,54.1547 276.3314,53.0957 L274.6094,62.0377 Z" id="Fill-14" fill="#777779"></path>
                <path d="M301.2355,35.6076 C295.4715,35.6076 291.8955,41.8336 291.8955,47.3326 C291.8955,51.9686 294.3455,55.0826 298.3875,55.0166 C303.9515,55.0166 307.4615,50.3796 307.4615,42.5626 C307.4615,38.9856 305.8715,35.6076 301.2355,35.6076 M297.5265,63.3636 C284.7415,63.3636 279.5745,56.2746 279.5745,47.5976 C279.5745,35.4756 288.3185,27.2606 301.8315,27.2606 C313.5565,27.2606 319.7825,34.0176 319.7825,42.6946 C319.7825,57.0706 310.4425,63.3636 297.5265,63.3636" id="Fill-16" fill="#777779"></path>
                <path d="M364.5573,25.8702 L364.4233,25.8702 L354.6223,43.9532 L366.5443,43.9532 L364.5573,25.8702 Z M358.3963,16.3322 L373.8973,16.3322 L381.4473,62.5682 L368.9943,62.5682 L367.7363,52.6982 L349.7843,52.6982 L344.2873,62.5682 L330.9073,62.5682 L358.3963,16.3322 Z" id="Fill-18" fill="#777779"></path>
                <polygon id="Fill-20" fill="#777779" points="384.293 53.5588 403.104 36.7998 388.333 36.7998 390.121 28.0568 419.4 28.0568 417.544 37.0658 398.6 53.8238 414.365 53.8238 412.578 62.5678 382.571 62.5678"></polygon>
                <path d="M421.1199,28.0566 L427.9419,28.0566 L429.5989,20.6376 L442.1829,17.2596 L439.7999,28.0566 L448.0139,28.0566 L446.5569,36.4036 L437.8789,36.4036 L435.8249,46.0076 C435.2949,48.5906 434.8309,50.3126 434.8309,51.9686 C434.8309,54.2866 436.3549,55.8116 438.7399,55.8116 C439.9989,55.8116 441.3219,55.2806 442.5819,54.8176 L441.2569,62.6996 C438.7399,63.0976 436.2219,63.3636 433.8379,63.3636 C427.7439,63.3636 422.9069,60.3826 422.9069,53.1606 C422.9069,51.4386 423.1729,49.7166 423.9679,46.0736 L426.0209,36.4036 L419.6629,36.4036 L421.1199,28.0566 Z" id="Fill-22" fill="#777779"></path>
                <path d="M473.4456,42.0335 C473.4456,38.3235 471.9886,35.2105 467.6176,35.2105 C462.4516,35.2105 459.6686,38.7205 458.8086,42.0335 L473.4456,42.0335 Z M476.6266,61.4415 C472.4536,62.7005 468.0146,63.3635 464.5696,63.3635 C453.0436,63.3635 446.8176,56.2745 446.8176,47.5975 C446.8176,39.5815 452.1166,27.2615 467.4846,27.2615 C476.5586,27.2615 483.3836,31.8325 483.3836,42.2985 C483.3836,43.6885 482.9846,46.7365 482.5216,48.7905 L458.0786,48.7905 C458.2126,52.4995 460.0656,55.4135 467.3526,55.4135 C470.5316,55.4135 474.8366,54.6195 478.1496,53.0295 L476.6266,61.4415 Z" id="Fill-24" fill="#777779"></path>
                <path d="M512.7899,62.0377 C510.4069,62.8327 507.2249,63.3637 502.5889,63.3637 C492.5199,63.3637 486.2939,56.2737 486.2939,47.5977 C486.2939,36.2707 495.3029,27.2617 508.5509,27.2617 C511.4639,27.2617 515.9029,28.1227 519.4139,29.5797 L516.8299,37.8597 C514.3809,36.7337 511.7949,36.0047 509.1469,36.0047 C502.9859,36.0047 498.6139,39.9797 498.6139,47.1337 C498.6139,51.2417 501.7939,54.6197 506.8289,54.6197 C509.8079,54.6197 511.9289,54.1547 514.5119,53.0957 L512.7899,62.0377 Z" id="Fill-26" fill="#777779"></path>
                <g id="Group-30" transform="translate(517.000000, 26.363700)">
                    <mask id="mask-2" fill="white">
                        <use xlink:href="#path-1"></use>
                    </mask>
                    <g id="Clip-29"></g>
                    <path d="M15.6594,29.0498 C20.7594,29.0498 23.8074,25.5408 24.6684,20.9028 C23.6744,20.7028 22.2164,20.7028 21.4894,20.7028 C15.7934,20.5058 11.6194,22.5578 11.6194,25.6058 C11.6194,27.1948 13.1424,29.0498 15.6594,29.0498 L15.6594,29.0498 Z M23.6074,31.3688 L23.4764,31.2368 L23.4764,31.3688 C20.9594,35.3428 16.5204,36.9988 11.8844,36.9988 C4.4654,36.9988 0.3574,33.6878 0.3574,26.9968 C0.3574,18.5188 8.8374,14.3448 19.3684,14.3448 C21.7544,14.3448 24.1384,14.5438 25.7944,14.6768 C25.9254,14.2118 25.9254,13.7478 25.9254,13.2848 C25.9254,10.8338 23.4764,8.8468 19.5684,8.8468 C15.2634,8.8468 12.3464,9.5088 8.3724,11.5638 L9.5664,2.8848 C13.0764,1.6938 16.8514,0.8978 22.2164,0.8978 C30.4314,0.8978 37.1874,4.1438 37.1874,12.6218 C37.1874,18.0548 34.1414,25.8038 32.8164,36.2048 L23.0774,36.2048 L23.6074,31.3688 Z" id="Fill-28" fill="#777779" mask="url(#mask-2)"></path>
                </g>
            </g>
        </g>
    </g>
</svg>