<svg xmlns="http://www.w3.org/2000/svg" width="132" height="32"><title>Logo</title><desc>Created with Sketch.</desc><g fill="none"><g><g><g><g><g fill="#231F20"><path d="M87.82 17.54c-.68-.67-1.7-1.17-2.75-1.17-.72 0-1.62.42-1.62 1.23 0 2.17 7.38.48 7.38 5.5 0 3.47-3.47 4.47-6.47 4.47-2.06 0-4.14-.5-5.62-1.95l2.54-2.53c.83.8 2 1.38 3.3 1.38.97 0 1.98-.35 1.98-1.08 0-2.35-7.37-.46-7.37-5.52 0-3.2 2.94-4.6 5.88-4.6 1.85 0 3.9.45 5.2 1.8l-2.46 2.46z"/><path d="M34.38 27.24h4.33V6.04H34.4z"/><path d="M48.96 16.98c-2.16 0-3.46 1.4-3.46 3.45 0 2.04 1.3 3.44 3.46 3.44 2.17 0 3.47-1.4 3.47-3.44 0-2.05-1.3-3.45-3.47-3.45zm7.45 10.26h-3.97v-1.8h-.06c-.66.98-2.34 2.13-4.3 2.13-4.16 0-6.9-2.9-6.9-7.03 0-3.78 2.42-7.26 6.4-7.26 1.8 0 3.47.48 4.45 1.8h.06V13.6h4.33v13.62z"/><path d="M59.82 13.62h4.33v2.18h.06c.93-1.65 2.14-2.52 4.05-2.52.5 0 1.04.03 1.44.14v3.84c-.6-.17-1.22-.28-1.85-.28-3.3 0-3.7 1.85-3.7 4.57v5.7h-4.33V13.6z"/><path d="M76.37 13.62v13.62h-4.33V13.62h4.33zm0-7.57v4.26h-4.33V6.06h4.33z"/><path d="M24.2 23.87c2.15 0 3.45-1.4 3.45-3.44 0-2.05-1.3-3.45-3.46-3.45-2.18 0-3.48 1.4-3.48 3.45 0 2.04 1.3 3.44 3.47 3.44m0-10.6c4.32 0 7.78 2.82 7.78 7.16s-3.46 7.14-7.8 7.14c-4.32 0-7.8-2.8-7.8-7.14s3.48-7.15 7.8-7.15"/><path d="M0 13.62h4.68l3.55 9.25h.06l3.27-9.25h4.36L10.4 27.24H5.8z"/></g><g><path fill="#EEEFEF" d="M112.98 4.54h4.54V0h-4.54z"/><path fill="#B5D5F0" d="M112.98 9.08h4.54V4.54h-4.54z"/><path fill="#6CADDE" d="M112.98 13.62h4.54V9.08h-4.54z"/><path fill="#B5D5F0" d="M108.44 13.62h4.54V9.08h-4.54z"/><path fill="#D6A6CC" d="M108.44 22.7h4.54v-4.54h-4.54z"/><path fill="#B5D5F0" d="M117.52 13.62h4.54V9.08h-4.54z"/><path fill="#DAE7A2" d="M117.52 22.7h4.54v-4.54h-4.54z"/><path fill="#231F20" d="M112.98 18.16h4.54v-4.54h-4.54z"/><path fill="#91268F" d="M112.98 22.7h4.54v-4.54h-4.54z"/><path fill="#D6A6CC" d="M112.98 27.23h4.54V22.7h-4.54z"/><path fill="#EEEFEF" d="M112.98 31.77h4.54v-4.54h-4.54z"/><path fill="#EEEFEF" d="M99.37 18.16h4.54v-4.54h-4.53z"/><path fill="#D6A6CC" d="M103.9 18.16h4.54v-4.54h-4.53z"/><path fill="#91268F" d="M108.44 18.16h4.54v-4.54h-4.54z"/><path fill="#8DC63F" d="M117.52 18.16h4.54v-4.54h-4.54z"/><path fill="#DAE7A2" d="M122.06 18.16h4.54v-4.54h-4.54z"/><path fill="#EEEFEF" d="M126.6 18.16h4.54v-4.54h-4.54z"/></g></g></g></g></g></g></svg>